<?xml version="1.0" encoding="UTF-8" standalone="no"?>
<svg width="240px" height="240px" viewBox="0 0 240 240" version="1.1" xmlns="http://www.w3.org/2000/svg" xmlns:xlink="http://www.w3.org/1999/xlink" xmlns:sketch="http://www.bohemiancoding.com/sketch/ns">
    <title>Slice 1</title>
    <description>Created with Sketch (http://www.bohemiancoding.com/sketch)</description>
    <defs>
        <path id="path-1" d="M105.5,213.5 L92.5,226.5"></path>
        <filter x="-20%" y="-20%" width="140%" height="140%" filterUnits="objectBoundingBox" id="filter-2">
            <feOffset dx="0" dy="1" in="SourceAlpha" result="shadowOffsetOuter1"></feOffset>
            <feGaussianBlur stdDeviation="0" in="shadowOffsetOuter1" result="shadowBlurOuter1"></feGaussianBlur>
            <feColorMatrix values="0 0 0 0 0   0 0 0 0 0   0 0 0 0 0  0 0 0 0.7 0" in="shadowBlurOuter1" type="matrix" result="shadowMatrixOuter1"></feColorMatrix>
            <feMerge>
                <feMergeNode in="shadowMatrixOuter1"></feMergeNode>
                <feMergeNode in="SourceGraphic"></feMergeNode>
            </feMerge>
        </filter>
        <filter x="-20%" y="-20%" width="140%" height="140%" filterUnits="objectBoundingBox" id="filter-3">
            <feOffset dx="0" dy="1" in="SourceAlpha" result="shadowOffsetOuter1"></feOffset>
            <feGaussianBlur stdDeviation="0" in="shadowOffsetOuter1" result="shadowBlurOuter1"></feGaussianBlur>
            <feColorMatrix values="0 0 0 0 0   0 0 0 0 0   0 0 0 0 0  0 0 0 0.7 0" in="shadowBlurOuter1" type="matrix" result="shadowMatrixOuter1"></feColorMatrix>
            <feMerge>
                <feMergeNode in="shadowMatrixOuter1"></feMergeNode>
                <feMergeNode in="SourceGraphic"></feMergeNode>
            </feMerge>
        </filter>
        <filter x="-20%" y="-20%" width="140%" height="140%" filterUnits="objectBoundingBox" id="filter-4">
            <feOffset dx="0" dy="1" in="SourceAlpha" result="shadowOffsetOuter1"></feOffset>
            <feGaussianBlur stdDeviation="0" in="shadowOffsetOuter1" result="shadowBlurOuter1"></feGaussianBlur>
            <feColorMatrix values="0 0 0 0 0   0 0 0 0 0   0 0 0 0 0  0 0 0 0.7 0" in="shadowBlurOuter1" type="matrix" result="shadowMatrixOuter1"></feColorMatrix>
            <feMerge>
                <feMergeNode in="shadowMatrixOuter1"></feMergeNode>
                <feMergeNode in="SourceGraphic"></feMergeNode>
            </feMerge>
        </filter>
        <filter x="-20%" y="-20%" width="140%" height="140%" filterUnits="objectBoundingBox" id="filter-5">
            <feOffset dx="0" dy="1" in="SourceAlpha" result="shadowOffsetOuter1"></feOffset>
            <feGaussianBlur stdDeviation="0" in="shadowOffsetOuter1" result="shadowBlurOuter1"></feGaussianBlur>
            <feColorMatrix values="0 0 0 0 0   0 0 0 0 0   0 0 0 0 0  0 0 0 0.7 0" in="shadowBlurOuter1" type="matrix" result="shadowMatrixOuter1"></feColorMatrix>
            <feMerge>
                <feMergeNode in="shadowMatrixOuter1"></feMergeNode>
                <feMergeNode in="SourceGraphic"></feMergeNode>
            </feMerge>
        </filter>
        <filter x="-20%" y="-20%" width="140%" height="140%" filterUnits="objectBoundingBox" id="filter-6">
            <feOffset dx="0" dy="1" in="SourceAlpha" result="shadowOffsetOuter1"></feOffset>
            <feGaussianBlur stdDeviation="0" in="shadowOffsetOuter1" result="shadowBlurOuter1"></feGaussianBlur>
            <feColorMatrix values="0 0 0 0 0   0 0 0 0 0   0 0 0 0 0  0 0 0 0.7 0" in="shadowBlurOuter1" type="matrix" result="shadowMatrixOuter1"></feColorMatrix>
            <feMerge>
                <feMergeNode in="shadowMatrixOuter1"></feMergeNode>
                <feMergeNode in="SourceGraphic"></feMergeNode>
            </feMerge>
        </filter>
        <filter x="-20%" y="-20%" width="140%" height="140%" filterUnits="objectBoundingBox" id="filter-7">
            <feOffset dx="0" dy="1" in="SourceAlpha" result="shadowOffsetOuter1"></feOffset>
            <feGaussianBlur stdDeviation="0" in="shadowOffsetOuter1" result="shadowBlurOuter1"></feGaussianBlur>
            <feColorMatrix values="0 0 0 0 0   0 0 0 0 0   0 0 0 0 0  0 0 0 0.7 0" in="shadowBlurOuter1" type="matrix" result="shadowMatrixOuter1"></feColorMatrix>
            <feMerge>
                <feMergeNode in="shadowMatrixOuter1"></feMergeNode>
                <feMergeNode in="SourceGraphic"></feMergeNode>
            </feMerge>
        </filter>
        <filter x="-20%" y="-20%" width="140%" height="140%" filterUnits="objectBoundingBox" id="filter-8">
            <feOffset dx="0" dy="1" in="SourceAlpha" result="shadowOffsetOuter1"></feOffset>
            <feGaussianBlur stdDeviation="0" in="shadowOffsetOuter1" result="shadowBlurOuter1"></feGaussianBlur>
            <feColorMatrix values="0 0 0 0 0   0 0 0 0 0   0 0 0 0 0  0 0 0 0.7 0" in="shadowBlurOuter1" type="matrix" result="shadowMatrixOuter1"></feColorMatrix>
            <feMerge>
                <feMergeNode in="shadowMatrixOuter1"></feMergeNode>
                <feMergeNode in="SourceGraphic"></feMergeNode>
            </feMerge>
        </filter>
        <filter x="-20%" y="-20%" width="140%" height="140%" filterUnits="objectBoundingBox" id="filter-9">
            <feOffset dx="0" dy="1" in="SourceAlpha" result="shadowOffsetOuter1"></feOffset>
            <feGaussianBlur stdDeviation="0" in="shadowOffsetOuter1" result="shadowBlurOuter1"></feGaussianBlur>
            <feColorMatrix values="0 0 0 0 0   0 0 0 0 0   0 0 0 0 0  0 0 0 0.7 0" in="shadowBlurOuter1" type="matrix" result="shadowMatrixOuter1"></feColorMatrix>
            <feMerge>
                <feMergeNode in="shadowMatrixOuter1"></feMergeNode>
                <feMergeNode in="SourceGraphic"></feMergeNode>
            </feMerge>
        </filter>
        <filter x="-20%" y="-20%" width="140%" height="140%" filterUnits="objectBoundingBox" id="filter-10">
            <feOffset dx="0" dy="1" in="SourceAlpha" result="shadowOffsetOuter1"></feOffset>
            <feGaussianBlur stdDeviation="0" in="shadowOffsetOuter1" result="shadowBlurOuter1"></feGaussianBlur>
            <feColorMatrix values="0 0 0 0 0   0 0 0 0 0   0 0 0 0 0  0 0 0 0.7 0" in="shadowBlurOuter1" type="matrix" result="shadowMatrixOuter1"></feColorMatrix>
            <feMerge>
                <feMergeNode in="shadowMatrixOuter1"></feMergeNode>
                <feMergeNode in="SourceGraphic"></feMergeNode>
            </feMerge>
        </filter>
        <filter x="-20%" y="-20%" width="140%" height="140%" filterUnits="objectBoundingBox" id="filter-11">
            <feOffset dx="0" dy="1" in="SourceAlpha" result="shadowOffsetOuter1"></feOffset>
            <feGaussianBlur stdDeviation="0" in="shadowOffsetOuter1" result="shadowBlurOuter1"></feGaussianBlur>
            <feColorMatrix values="0 0 0 0 0   0 0 0 0 0   0 0 0 0 0  0 0 0 0.7 0" in="shadowBlurOuter1" type="matrix" result="shadowMatrixOuter1"></feColorMatrix>
            <feMerge>
                <feMergeNode in="shadowMatrixOuter1"></feMergeNode>
                <feMergeNode in="SourceGraphic"></feMergeNode>
            </feMerge>
        </filter>
        <filter x="-20%" y="-20%" width="140%" height="140%" filterUnits="objectBoundingBox" id="filter-12">
            <feOffset dx="0" dy="1" in="SourceAlpha" result="shadowOffsetOuter1"></feOffset>
            <feGaussianBlur stdDeviation="0" in="shadowOffsetOuter1" result="shadowBlurOuter1"></feGaussianBlur>
            <feColorMatrix values="0 0 0 0 0   0 0 0 0 0   0 0 0 0 0  0 0 0 0.7 0" in="shadowBlurOuter1" type="matrix" result="shadowMatrixOuter1"></feColorMatrix>
            <feMerge>
                <feMergeNode in="shadowMatrixOuter1"></feMergeNode>
                <feMergeNode in="SourceGraphic"></feMergeNode>
            </feMerge>
        </filter>
    </defs>
    <g id="Page-1" stroke="none" stroke-width="1" fill="none" fill-rule="evenodd" sketch:type="MSPage">
        <path d="M57,143.778928 C57.5978014,144.124737 58,144.771081 58,145.511364 C58,146.615933 57.1045696,147.511364 56,147.511364 C54.8954304,147.511364 54,146.615933 54,145.511364 C54,144.771081 54.4021986,144.124737 55,143.778928 L55,137.243799 C54.4021986,136.89799 54,136.251646 54,135.511364 C54,134.406794 54.8954304,133.511364 56,133.511364 C57.1045696,133.511364 58,134.406794 58,135.511364 C58,136.251646 57.5978014,136.89799 57,137.243799 L57,143.778928 L57,143.778928 Z M64,147.511364 C65.1045696,147.511364 66,146.615933 66,145.511364 C66,144.406794 65.1045696,143.511364 64,143.511364 C62.8954304,143.511364 62,144.406794 62,145.511364 C62,146.615933 62.8954304,147.511364 64,147.511364 Z M63,143.511364 L63,136.511364 L61,136.511364 L61,138.511364 L58,135.511364 L60.9886831,133 L60.9886831,134.511406 L63,134.511406 C63,134.511406 64.0000001,134.511364 64.5,135.011364 C64.9999999,135.511364 65,136.511364 65,136.511364 L65,143.511364 L63,143.511364 Z" id="Oval-6" stroke="#CC2837" sketch:type="MSShapeGroup"></path>
        <path d="M17,143.778928 C17.5978014,144.124737 18,144.771081 18,145.511364 C18,146.615933 17.1045696,147.511364 16,147.511364 C14.8954304,147.511364 14,146.615933 14,145.511364 C14,144.771081 14.4021986,144.124737 15,143.778928 L15,137.243799 C14.4021986,136.89799 14,136.251646 14,135.511364 C14,134.406794 14.8954304,133.511364 16,133.511364 C17.1045696,133.511364 18,134.406794 18,135.511364 C18,136.251646 17.5978014,136.89799 17,137.243799 L17,143.778928 L17,143.778928 Z M24,147.511364 C25.1045696,147.511364 26,146.615933 26,145.511364 C26,144.406794 25.1045696,143.511364 24,143.511364 C22.8954304,143.511364 22,144.406794 22,145.511364 C22,146.615933 22.8954304,147.511364 24,147.511364 Z M23,143.511364 L23,136.511364 L21,136.511364 L21,138.511364 L18,135.511364 L20.9886831,133 L20.9886831,134.511406 L23,134.511406 C23,134.511406 24.0000001,134.511364 24.5,135.011364 C24.9999999,135.511364 25,136.511364 25,136.511364 L25,143.511364 L23,143.511364 Z" id="Oval-6" stroke="#74CC47" sketch:type="MSShapeGroup"></path>
        <path d="M19.5,105 C21.9852815,105 24,102.985281 24,100.5 C24,98.0147185 21.9852815,96 19.5,96 C17.0147185,96 15,98.0147185 15,100.5 C15,102.985281 17.0147185,105 19.5,105 Z" id="Oval-72" fill="#74CC47" sketch:type="MSShapeGroup"></path>
        <path d="M59.5,105 C61.9852815,105 64,102.985281 64,100.5 C64,98.0147185 61.9852815,96 59.5,96 C57.0147185,96 55,98.0147185 55,100.5 C55,102.985281 57.0147185,105 59.5,105 Z" id="Oval-72" fill="#CC2929" sketch:type="MSShapeGroup"></path>
        <path d="M14,185.001694 L14,183.987694 C14,183.987694 14.066,183.364694 14.816,183.171694 C14.816,183.171694 16.024,182.729694 16.97,182.317694 C17.459,182.104694 17.565,181.978694 18.058,181.758694 C18.058,181.758694 18.11,181.504694 18.091,181.354694 L18.477,181.354694 C18.477,181.354694 18.565,181.405694 18.477,180.810694 C18.477,180.810694 18.007,180.685694 17.985,179.737694 C17.985,179.737694 17.631,179.856694 17.61,179.280694 C17.595,178.892694 17.294,178.553694 17.727,178.274694 L17.507,177.678694 C17.507,177.678694 17.066,175.274694 18.334,175.626694 C17.799,174.985694 21.367,174.347694 21.599,176.376694 C21.599,176.376694 21.764,177.472694 21.599,178.222694 C21.599,178.222694 22.12,178.161694 21.771,179.162694 C21.771,179.162694 21.58,179.883694 21.286,179.722694 C21.286,179.722694 21.334,180.633694 20.87,180.787694 C20.87,180.787694 20.903,181.272694 20.903,181.306694 L21.344,181.372694 C21.344,181.372694 21.278,181.769694 21.355,181.811694 C21.355,181.811694 21.878,182.171694 22.502,182.332694 C23.704,182.642694 25.127,183.170694 25.127,183.633694 C25.127,183.633694 25.248,184.250694 25.248,185.000694 L14,185.000694 L14,185.001694" id="Imported-Layers" fill="#74CC47" sketch:type="MSShapeGroup"></path>
        <path d="M54,185.001694 L54,183.987694 C54,183.987694 54.066,183.364694 54.816,183.171694 C54.816,183.171694 56.024,182.729694 56.97,182.317694 C57.459,182.104694 57.565,181.978694 58.058,181.758694 C58.058,181.758694 58.11,181.504694 58.091,181.354694 L58.477,181.354694 C58.477,181.354694 58.565,181.405694 58.477,180.810694 C58.477,180.810694 58.007,180.685694 57.985,179.737694 C57.985,179.737694 57.631,179.856694 57.61,179.280694 C57.595,178.892694 57.294,178.553694 57.727,178.274694 L57.507,177.678694 C57.507,177.678694 57.066,175.274694 58.334,175.626694 C57.799,174.985694 61.367,174.347694 61.599,176.376694 C61.599,176.376694 61.764,177.472694 61.599,178.222694 C61.599,178.222694 62.12,178.161694 61.771,179.162694 C61.771,179.162694 61.58,179.883694 61.286,179.722694 C61.286,179.722694 61.334,180.633694 60.87,180.787694 C60.87,180.787694 60.903,181.272694 60.903,181.306694 L61.344,181.372694 C61.344,181.372694 61.278,181.769694 61.355,181.811694 C61.355,181.811694 61.878,182.171694 62.502,182.332694 C63.704,182.642694 65.127,183.170694 65.127,183.633694 C65.127,183.633694 65.248,184.250694 65.248,185.000694 L54,185.000694 L54,185.001694" id="Imported-Layers" fill="#CB2836" sketch:type="MSShapeGroup"></path>
        <path d="M97,143.778928 C97.5978014,144.124737 98,144.771081 98,145.511364 C98,146.615933 97.1045696,147.511364 96,147.511364 C94.8954304,147.511364 94,146.615933 94,145.511364 C94,144.771081 94.4021986,144.124737 95,143.778928 L95,137.243799 C94.4021986,136.89799 94,136.251646 94,135.511364 C94,134.406794 94.8954304,133.511364 96,133.511364 C97.1045696,133.511364 98,134.406794 98,135.511364 C98,136.251646 97.5978014,136.89799 97,137.243799 L97,143.778928 L97,143.778928 Z M104,147.511364 C105.10457,147.511364 106,146.615933 106,145.511364 C106,144.406794 105.10457,143.511364 104,143.511364 C102.89543,143.511364 102,144.406794 102,145.511364 C102,146.615933 102.89543,147.511364 104,147.511364 Z M103,143.511364 L103,136.511364 L101,136.511364 L101,138.511364 L98,135.511364 L100.988683,133 L100.988683,134.511406 L103,134.511406 C103,134.511406 104,134.511364 104.5,135.011364 C105,135.511364 105,136.511364 105,136.511364 L105,143.511364 L103,143.511364 Z" id="Oval-6" stroke="#CCCCCC" sketch:type="MSShapeGroup"></path>
        <path d="M99.5,105 C101.985281,105 104,102.985281 104,100.5 C104,98.0147185 101.985281,96 99.5,96 C97.0147185,96 95,98.0147185 95,100.5 C95,102.985281 97.0147185,105 99.5,105 Z" id="Oval-72" fill="#CCCCCC" sketch:type="MSShapeGroup"></path>
        <path d="M94,185.001694 L94,183.987694 C94,183.987694 94.066,183.364694 94.816,183.171694 C94.816,183.171694 96.024,182.729694 96.97,182.317694 C97.459,182.104694 97.565,181.978694 98.058,181.758694 C98.058,181.758694 98.11,181.504694 98.091,181.354694 L98.477,181.354694 C98.477,181.354694 98.565,181.405694 98.477,180.810694 C98.477,180.810694 98.007,180.685694 97.985,179.737694 C97.985,179.737694 97.631,179.856694 97.61,179.280694 C97.595,178.892694 97.294,178.553694 97.727,178.274694 L97.507,177.678694 C97.507,177.678694 97.066,175.274694 98.334,175.626694 C97.799,174.985694 101.367,174.347694 101.599,176.376694 C101.599,176.376694 101.764,177.472694 101.599,178.222694 C101.599,178.222694 102.12,178.161694 101.771,179.162694 C101.771,179.162694 101.58,179.883694 101.286,179.722694 C101.286,179.722694 101.334,180.633694 100.87,180.787694 C100.87,180.787694 100.903,181.272694 100.903,181.306694 L101.344,181.372694 C101.344,181.372694 101.278,181.769694 101.355,181.811694 C101.355,181.811694 101.878,182.171694 102.502,182.332694 C103.704,182.642694 105.127,183.170694 105.127,183.633694 C105.127,183.633694 105.248,184.250694 105.248,185.000694 L94,185.000694 L94,185.001694" id="Imported-Layers" fill="#CCCCCC" sketch:type="MSShapeGroup"></path>
        <path d="M51,220.019301 C51,220.019301 53.1623404,225.0193 59.1000004,225.0193 C65.0376604,225.0193 67.2,220.019301 67.2,220.019301 C67.2,220.019301 64.6076894,215.575118 59.6000004,215.019301 C59.2087449,214.975874 59.530296,215.019301 59.1000004,215.019301 C53.1623404,215.019301 51,220.019301 51,220.019301 Z M51.98424,220.021641 C52.45404,219.298761 53.71674,217.699461 56.07186,216.895401 C55.25574,217.686681 54.74634,218.792781 54.74634,220.019301 C54.74634,221.250501 55.25952,222.360201 56.08104,223.152021 C53.71098,222.353361 52.45404,220.752261 51.98424,220.021641 C51.98424,220.021641 52.45404,220.752261 51.98424,220.021641 L51.98424,220.021641 L51.98424,220.021641 Z M59.1,223.574481 C57.13962,223.574481 55.54482,221.979681 55.54482,220.019301 C55.54482,218.058921 57.13962,216.464121 59.1,216.464121 C61.06038,216.464121 62.65518,218.058921 62.65518,220.019301 C62.65518,221.979681 61.06038,223.574481 59.1,223.574481 L59.1,223.574481 L59.1,223.574481 L59.1,223.574481 Z M62.12814,223.143381 C62.94426,222.351921 63.45348,221.245821 63.45348,220.019301 C63.45348,218.788101 62.9403,217.678401 62.11878,216.886581 C64.48902,217.685421 65.74578,219.286341 66.21576,220.017141 C65.74596,220.739841 64.48326,222.339321 62.12814,223.143381 C62.12814,223.143381 64.48326,222.339321 62.12814,223.143381 Z M59.1,217.291581 C57.59376,217.291581 56.37228,218.513061 56.37228,220.019301 C56.37228,221.525541 57.59376,222.747021 59.1,222.747021 C60.60624,222.747021 61.82772,221.525541 61.82772,220.019301 C61.82772,218.513061 60.60624,217.291581 59.1,217.291581 Z M59.91216,220.145661 C59.44182,220.145661 59.06058,219.764421 59.06058,219.294261 C59.06058,218.823921 59.44182,218.442681 59.91216,218.442681 C60.38232,218.442681 60.76356,218.823921 60.76356,219.294261 C60.76356,219.764421 60.38232,220.145661 59.91216,220.145661 L59.91216,220.145661 L59.91216,220.145661 L59.91216,220.145661 Z" id="Shape" fill="#CC2828" sketch:type="MSShapeGroup"></path>
        <path d="M91,220.019301 C91,220.019301 93.1623404,225.0193 99.1000004,225.0193 C105.03766,225.0193 107.2,220.019301 107.2,220.019301 C107.2,220.019301 104.607689,215.575118 99.6000004,215.019301 C99.2087449,214.975874 99.530296,215.019301 99.1000004,215.019301 C93.1623404,215.019301 91,220.019301 91,220.019301 Z M91.98424,220.021641 C92.45404,219.298761 93.71674,217.699461 96.07186,216.895401 C95.25574,217.686681 94.74634,218.792781 94.74634,220.019301 C94.74634,221.250501 95.25952,222.360201 96.08104,223.152021 C93.71098,222.353361 92.45404,220.752261 91.98424,220.021641 C91.98424,220.021641 92.45404,220.752261 91.98424,220.021641 L91.98424,220.021641 L91.98424,220.021641 Z M99.1,223.574481 C97.13962,223.574481 95.54482,221.979681 95.54482,220.019301 C95.54482,218.058921 97.13962,216.464121 99.1,216.464121 C101.06038,216.464121 102.65518,218.058921 102.65518,220.019301 C102.65518,221.979681 101.06038,223.574481 99.1,223.574481 L99.1,223.574481 L99.1,223.574481 L99.1,223.574481 Z M102.12814,223.143381 C102.94426,222.351921 103.45348,221.245821 103.45348,220.019301 C103.45348,218.788101 102.9403,217.678401 102.11878,216.886581 C104.48902,217.685421 105.74578,219.286341 106.21576,220.017141 C105.74596,220.739841 104.48326,222.339321 102.12814,223.143381 C102.12814,223.143381 104.48326,222.339321 102.12814,223.143381 Z M99.1,217.291581 C97.59376,217.291581 96.37228,218.513061 96.37228,220.019301 C96.37228,221.525541 97.59376,222.747021 99.1,222.747021 C100.60624,222.747021 101.82772,221.525541 101.82772,220.019301 C101.82772,218.513061 100.60624,217.291581 99.1,217.291581 Z M99.91216,220.145661 C99.44182,220.145661 99.06058,219.764421 99.06058,219.294261 C99.06058,218.823921 99.44182,218.442681 99.91216,218.442681 C100.38232,218.442681 100.76356,218.823921 100.76356,219.294261 C100.76356,219.764421 100.38232,220.145661 99.91216,220.145661 L99.91216,220.145661 L99.91216,220.145661 L99.91216,220.145661 Z" id="Shape" fill="#CCCCCC" sketch:type="MSShapeGroup"></path>
        <path d="M11,220.019301 C11,220.019301 13.1623404,225.0193 19.1000004,225.0193 C25.0376604,225.0193 27.2,220.019301 27.2,220.019301 C27.2,220.019301 24.6076894,215.575118 19.6000004,215.019301 C19.2087449,214.975874 19.530296,215.019301 19.1000004,215.019301 C13.1623404,215.019301 11,220.019301 11,220.019301 Z M11.98424,220.021641 C12.45404,219.298761 13.71674,217.699461 16.07186,216.895401 C15.25574,217.686681 14.74634,218.792781 14.74634,220.019301 C14.74634,221.250501 15.25952,222.360201 16.08104,223.152021 C13.71098,222.353361 12.45404,220.752261 11.98424,220.021641 C11.98424,220.021641 12.45404,220.752261 11.98424,220.021641 L11.98424,220.021641 L11.98424,220.021641 Z M19.1,223.574481 C17.13962,223.574481 15.54482,221.979681 15.54482,220.019301 C15.54482,218.058921 17.13962,216.464121 19.1,216.464121 C21.06038,216.464121 22.65518,218.058921 22.65518,220.019301 C22.65518,221.979681 21.06038,223.574481 19.1,223.574481 L19.1,223.574481 L19.1,223.574481 L19.1,223.574481 Z M22.12814,223.143381 C22.94426,222.351921 23.45348,221.245821 23.45348,220.019301 C23.45348,218.788101 22.9403,217.678401 22.11878,216.886581 C24.48902,217.685421 25.74578,219.286341 26.21576,220.017141 C25.74596,220.739841 24.48326,222.339321 22.12814,223.143381 C22.12814,223.143381 24.48326,222.339321 22.12814,223.143381 Z M19.1,217.291581 C17.59376,217.291581 16.37228,218.513061 16.37228,220.019301 C16.37228,221.525541 17.59376,222.747021 19.1,222.747021 C20.60624,222.747021 21.82772,221.525541 21.82772,220.019301 C21.82772,218.513061 20.60624,217.291581 19.1,217.291581 Z M19.91216,220.145661 C19.44182,220.145661 19.06058,219.764421 19.06058,219.294261 C19.06058,218.823921 19.44182,218.442681 19.91216,218.442681 C20.38232,218.442681 20.76356,218.823921 20.76356,219.294261 C20.76356,219.764421 20.38232,220.145661 19.91216,220.145661 L19.91216,220.145661 L19.91216,220.145661 L19.91216,220.145661 Z" id="Shape" fill="#74CC47" sketch:type="MSShapeGroup"></path>
        <g id="Line">
            <use sketch:type="MSShapeGroup" xlink:href="#path-1"></use>
            <use xlink:href="#path-1"></use>
        </g>
        <g id="Logotype" sketch:type="MSLayerGroup" transform="translate(0.000000, 9.000000)" fill="#FFFFFF">
            <path d="M6.88689242,15.1522639 C7.88520454,14.048994 9.58519308,14.0454446 9.42741444,14.0491912 C9.26953724,14.0529378 11.4282763,14.0491912 11.4282763,14.0491912 L11.4282763,14.0502757 C11.4282763,14.0502757 12.9151996,14.0485996 13.0508045,14.0508673 C13.186508,14.0529378 13.6802438,14.0365711 14.2708543,13.5296979 C14.8259868,12.9873308 14.8528909,12.2894806 14.8565373,12.2113939 C14.8631401,12.06508 14.9295629,11.3639761 14.9324208,10.5065017 C14.9350817,9.69635254 14.8715169,8.83315967 14.8678705,8.80141231 C14.8602822,8.73594571 14.8259868,8.02192598 14.2708543,7.47975606 C13.6802438,6.9727843 13.1922239,6.96746021 13.0555349,6.96164315 C12.918846,6.95602327 11.4282763,6.95917829 11.4282763,6.95917829 L11.4282763,6.95986845 L9.42613329,6.96164315 C9.42613329,6.96164315 7.88520454,6.96036142 6.88689242,5.85699289 C5.91440042,4.78211811 5.92908438,3.58981754 5.92553658,3.45208134 C5.92189022,3.31424655 5.92553658,0 5.92553658,0 L4.53923287,0 C1.78456157,0 0.0621036093,1.87102355 0.0621036093,4.4791379 L0.0621036093,16.5199637 C0.0621036093,19.1406981 1.87572038,20.999003 4.53923287,20.999003 L5.92553658,20.999003 C5.92553658,20.999003 5.92149602,17.6588262 5.92553658,17.5570769 C5.92947858,17.455229 5.91440042,16.2271387 6.88689242,15.1522639" id="Fill-3" filter="url(#filter-2)" sketch:type="MSShapeGroup"></path>
            <path d="M7.00505868,0.0914490075 C7.00505868,0.0914490075 7.00123196,3.40853929 7.00505868,3.51347758 C7.00888539,3.61841586 7.01114217,4.28603537 7.56385711,4.82594235 C8.15179744,5.33070629 8.77859364,5.34474387 8.77859364,5.34474387 L9.00201489,5.34474387 C9.00201489,5.34474387 12.3200707,5.34248608 12.3862041,5.34336956 C12.4524357,5.34425304 13.9216978,5.34307506 14.9156624,6.44183484 C15.85046,7.47482413 15.878032,8.67685338 15.8856854,8.8281255 C15.8891197,8.89742992 15.9269943,9.54885223 15.9271906,10.2950037 C15.9274849,11.1729906 15.8893159,12.1669102 15.8846061,12.2742045 C15.8761677,12.4725957 15.8498713,13.6267205 14.9156624,14.6588263 C13.9216978,15.7577824 12.4504733,15.7529724 12.3862041,15.7573898 C12.3220331,15.7618072 9.00201489,15.7559173 9.00201489,15.7559173 L8.77859364,15.7559173 C8.77859364,15.7559173 8.15179744,15.7701512 7.56385711,16.274817 C7.01114217,16.8146258 7.01634258,17.4690912 7.00505868,17.5871836 C6.99367665,17.7051778 7.00505868,20.999003 7.00505868,20.999003 L16.7326649,20.999003 C19.3430729,20.999003 22,19.1546728 22,16.4999993 L22,4.50000022 C22,1.94859619 19.4640559,0.0914490075 16.7326649,0.0914490075 L7.00505868,0.0914490075 Z" id="Fill-4" filter="url(#filter-3)" sketch:type="MSShapeGroup"></path>
            <path d="M40.5174665,11.2490469 C40.5174665,10.8919924 40.4578907,10.6020141 40.3391127,10.3790185 C40.2199611,10.1559295 40.0565479,9.98113904 39.8484062,9.85483404 C39.6399843,9.7283422 39.3836591,9.64267527 39.0789635,9.5980201 C38.7740812,9.55336493 38.4356758,9.53113077 38.0643077,9.53113077 C37.261342,9.53113077 36.4062708,9.68733044 35.4995611,9.9997298 C35.2912326,9.61296744 35.1350096,9.24881294 35.0310788,8.90642549 C34.9270546,8.56431831 34.8750425,8.15541521 34.8750425,7.67915567 C35.5292556,7.4562535 36.1833752,7.29258016 36.837775,7.18832248 C37.4918013,7.08453191 38.1012858,7.03221623 38.6663219,7.03221623 C40.2125842,7.03221623 41.4207212,7.40412466 42.2905463,8.1477547 C43.1602779,8.89175841 43.5952371,10.081473 43.5952371,11.7175525 L43.5952371,18.4091952 C43.0746494,18.5733357 42.442754,18.7295353 41.6995508,18.8777942 C40.9557873,19.0264268 40.1159369,19.1011635 39.1793459,19.1011635 C38.4210153,19.1011635 37.7259023,19.0341808 37.0941936,18.9000284 C36.462018,18.76653 35.9193929,18.5431607 35.4661314,18.2309482 C35.012403,17.9182686 34.6631657,17.5169326 34.4177658,17.026006 C34.1725526,16.5353596 34.049946,15.9326083 34.049946,15.2186861 C34.049946,14.5047639 34.2021537,13.9058427 34.5071294,13.42267 C34.8117316,12.9394039 35.2056975,12.5529219 35.6891204,12.2638777 C36.1721697,11.9742731 36.7111531,11.7661314 37.3059771,11.6394527 C37.9004276,11.5135214 38.4952516,11.4499952 39.0902624,11.4499952 C39.5212063,11.4499952 39.9968787,11.4722294 40.5174665,11.5166977 L40.5174665,11.2490469 L40.5174665,11.2490469 L40.5174665,11.2490469 L40.5174665,11.2490469 Z M40.5174665,13.5453316 C40.3391127,13.5157172 40.1456314,13.4892791 39.9376765,13.4672318 C39.7292546,13.4448108 39.5435239,13.433974 39.3801107,13.433974 C38.651568,13.433974 38.0754198,13.5642026 37.6517594,13.8241929 C37.2279123,14.0846503 37.0159421,14.5047639 37.0159421,15.0850942 C37.0159421,15.4718566 37.0976487,15.7690283 37.261342,15.9770766 C37.4247552,16.1857788 37.6218782,16.3379614 37.8524308,16.4347454 C38.0827034,16.5315294 38.3280099,16.5906648 38.5884438,16.6132726 C38.8483175,16.6355068 39.075135,16.646437 39.2685228,16.646437 C39.4915118,16.646437 39.7146875,16.6281265 39.9376765,16.5906648 C40.1606654,16.5539504 40.3537731,16.5205991 40.5174665,16.4904242 L40.5174665,13.5453316 L40.5174665,13.5453316 Z" id="Fill-5" filter="url(#filter-4)" sketch:type="MSShapeGroup"></path>
            <path d="M44.3855033,7.29986699 C44.9207515,7.21074349 45.4483427,7.16608832 45.9689304,7.16608832 C46.4891446,7.16608832 47.0172027,7.21074349 47.5523575,7.29986699 L47.5523575,13.4113661 C47.5523575,14.0215912 47.6007278,14.5233546 47.6974684,14.9175906 C47.7939289,15.3117332 47.942775,15.6241326 48.1434464,15.8545084 C48.3441178,16.0853514 48.5931595,16.2489313 48.8905715,16.345435 C49.1877967,16.4423125 49.5375009,16.4904242 49.9396841,16.4904242 C50.4897796,16.4904242 50.9526591,16.4387625 51.3249611,16.3341311 L51.3249611,7.29986699 C51.8603027,7.21074349 52.3805169,7.16608832 52.8858838,7.16608832 C53.4061914,7.16608832 53.9341561,7.21074349 54.4694977,7.29986699 L54.4694977,18.3871479 C53.9935451,18.5507278 53.3657583,18.7102906 52.5852036,18.8666772 C51.8046488,19.0228768 50.9901041,19.1011635 50.1403555,19.1011635 C49.3811845,19.1011635 48.6525485,19.0413742 47.9539804,18.9226362 C47.2548521,18.8034312 46.6416325,18.5507278 46.113948,18.163872 C45.5858899,17.7772031 45.1661515,17.2120069 44.8538922,16.46819 C44.5417263,15.7244666 44.3855033,14.7355134 44.3855033,13.500583 L44.3855033,7.29986699" id="Fill-6" filter="url(#filter-5)" sketch:type="MSShapeGroup"></path>
            <path d="M63.5339805,16.1114158 C63.7127079,16.4088678 63.8607135,16.7547118 63.9800519,17.1489478 C64.0986431,17.5430904 64.1584057,18.0076724 64.1584057,18.5431607 C63.563675,18.7813839 63.006296,18.9336599 62.4858017,19.0005492 C61.9652139,19.0673452 61.4226822,19.1011635 60.8579262,19.1011635 C59.890987,19.1011635 59.0515101,18.948327 58.3377213,18.6438684 C57.6240259,18.3389427 57.0330304,17.9182686 56.565015,17.3829671 C56.096346,16.8475721 55.743,16.2115629 55.5052572,15.4752197 C55.2672342,14.7388765 55.1482694,13.9394742 55.1482694,13.0769195 C55.1482694,12.2306199 55.263499,11.4427084 55.4938649,10.7135586 C55.724511,9.9849693 56.0741218,9.3454101 56.542324,8.79488098 C57.0107128,8.24481897 57.5939578,7.81302776 58.2931795,7.50072183 C58.9914674,7.18832248 59.8019968,7.03221623 60.7241141,7.03221623 C61.0508471,7.03221623 61.3519009,7.03987674 61.6273688,7.05445039 C61.9021831,7.06949115 62.165792,7.09910556 62.4189423,7.14376073 C62.6715324,7.18832248 62.9240291,7.24792499 63.1768994,7.32228799 C63.4301431,7.39693126 63.7127079,7.49352843 64.0245936,7.61226634 C64.0245936,7.9547472 63.9800519,8.33749246 63.8906882,8.76143632 C63.8013245,9.18528675 63.6600421,9.59073328 63.4669344,9.97740221 C63.0211433,9.82886305 62.6307258,9.7283422 62.2963357,9.67602652 C61.9618523,9.62408452 61.5788118,9.5980201 61.1479612,9.5980201 C60.2254704,9.5980201 59.5309177,9.89939579 59.0622487,10.5017735 C58.5939532,11.1040578 58.3599455,11.963156 58.3599455,13.0769195 C58.3599455,14.281488 58.6124422,15.1594572 59.1181827,15.7097995 C59.623643,16.2600484 60.3073638,16.5353596 61.1701854,16.5353596 C61.393081,16.5353596 61.5970207,16.5315294 61.7834051,16.5240557 C61.9692292,16.5167689 62.1513182,16.4980847 62.329672,16.46819 C62.5080259,16.4387625 62.6900215,16.393827 62.8762191,16.3341311 C63.0616697,16.2749957 63.2811103,16.2004459 63.5339805,16.1114158" id="Fill-7" filter="url(#filter-6)" sketch:type="MSShapeGroup"></path>
            <path d="M65.0501748,7.29986699 C65.2734439,7.25521182 65.4854141,7.22176715 65.6860855,7.19943956 C65.8866635,7.1772054 66.105824,7.16608832 66.3437536,7.16608832 C66.5666492,7.16608832 66.7861831,7.18112907 67.0019819,7.21074349 C67.2170337,7.24063816 67.4288171,7.27763282 67.6375191,7.32228799 C67.6820609,7.39693126 67.7227741,7.50455209 67.7602191,7.64580442 C67.7970104,7.78733703 67.8303467,7.93587619 67.8604147,8.09198244 C67.8900159,8.24827554 67.9159752,8.4043818 67.9382928,8.56048805 C67.9607971,8.71678115 67.9793795,8.84710324 67.9942268,8.95098724 C68.3208664,8.49023556 68.7224893,8.07750221 69.1985353,7.71269376 C69.6742077,7.34844583 70.2690317,7.16608832 70.9827272,7.16608832 C71.1307328,7.16608832 71.3023634,7.17384225 71.4955644,7.18832248 C71.6887655,7.20345666 71.8299545,7.2255974 71.9193182,7.25521182 C71.9487325,7.40412466 71.9713303,7.5753651 71.9860841,7.76855943 C72.0009314,7.96203403 72.0086818,8.16270203 72.0086818,8.37084371 C72.0086818,8.62401423 71.9975697,8.89904524 71.9753456,9.19659068 C71.9527478,9.49413611 71.9119412,9.77654736 71.8526456,10.044385 C71.6887655,10.0146771 71.5067699,9.9997298 71.3060985,9.9997298 L70.9382788,9.9997298 C70.685035,9.9997298 70.4028438,10.0258876 70.0905845,10.0778296 C69.7784187,10.1300519 69.4807265,10.267474 69.1985353,10.4906564 C68.9159705,10.7135586 68.6815893,11.0483789 68.4962321,11.4944635 C68.3097543,11.9409218 68.2174025,12.5642258 68.2174025,13.3668978 L68.2174025,18.8553732 C67.949685,18.9000284 67.6820609,18.9297362 67.41425,18.944777 C67.1466259,18.9594441 66.8862854,18.967198 66.6337886,18.967198 C66.3809184,18.967198 66.1244064,18.9594441 65.8640658,18.944777 C65.6041922,18.9297362 65.3326462,18.9000284 65.0501748,18.8553732 L65.0501748,7.29986699" id="Fill-8" filter="url(#filter-7)" sketch:type="MSShapeGroup"></path>
            <path d="M78.494598,11.2490469 C78.494598,10.8919924 78.4353023,10.6020141 78.3161508,10.3790185 C78.197186,10.1559295 78.0336794,9.98113904 77.8256311,9.85483404 C77.6173026,9.7283422 77.3606972,9.64267527 77.0562818,9.5980201 C76.7511193,9.55336493 76.4129941,9.53113077 76.0414392,9.53113077 C75.2386602,9.53113077 74.3833089,9.68733044 73.476319,9.9997298 C73.2683641,9.61296744 73.1122344,9.24881294 73.008397,8.90642549 C72.9038126,8.56431831 72.8522674,8.15541521 72.8522674,7.67915567 C73.5063871,7.4562535 74.1600398,7.29258016 74.8148131,7.18832248 C75.4685592,7.08453191 76.0782305,7.03221623 76.6435467,7.03221623 C78.1894355,7.03221623 79.3977593,7.40412466 80.2676777,8.1477547 C81.1372227,8.89175841 81.5720885,10.081473 81.5720885,11.7175525 L81.5720885,18.4091952 C81.0515008,18.5733357 80.4197921,18.7295353 79.6766823,18.8777942 C78.9329188,19.0264268 78.0933485,19.1011635 77.156384,19.1011635 C76.398427,19.1011635 75.703314,19.0341808 75.0714185,18.9000284 C74.4393363,18.76653 73.896431,18.5431607 73.4433563,18.2309482 C72.9894411,17.9182686 72.6402038,17.5169326 72.395084,17.026006 C72.1499642,16.5353596 72.0269841,15.9326083 72.0269841,15.2186861 C72.0269841,14.5047639 72.1793786,13.9058427 72.4840741,13.42267 C72.788583,12.9394039 73.1827356,12.5529219 73.6661585,12.2638777 C74.1493012,11.9742731 74.6880978,11.7661314 75.283202,11.6394527 C75.8775591,11.5135214 76.4722897,11.4499952 77.0670203,11.4499952 C77.4982444,11.4499952 77.9740102,11.4722294 78.494598,11.5166977 L78.494598,11.2490469 L78.494598,11.2490469 L78.494598,11.2490469 L78.494598,11.2490469 Z M78.494598,13.5453316 C78.3161508,13.5157172 78.1226695,13.4892791 77.9149947,13.4672318 C77.7062927,13.4448108 77.520562,13.433974 77.3570554,13.433974 C76.6284194,13.433974 76.0525513,13.5642026 75.6287975,13.8241929 C75.2053239,14.0846503 74.9931669,14.5047639 74.9931669,15.0850942 C74.9931669,15.4718566 75.0747801,15.7690283 75.2386602,15.9770766 C75.4017933,16.1857788 75.5987295,16.3379614 75.8293756,16.4347454 C76.0599282,16.5315294 76.305048,16.5906648 76.5652952,16.6132726 C76.8252622,16.6355068 77.0522665,16.646437 77.2457477,16.646437 C77.4686433,16.646437 77.691819,16.6281265 77.9149947,16.5906648 C78.1378903,16.5539504 78.3308113,16.5205991 78.494598,16.4904242 L78.494598,13.5453316 L78.494598,13.5453316 Z" id="Fill-9" filter="url(#filter-8)" sketch:type="MSShapeGroup"></path>
            <path d="M83.9022672,9.70975145 L82.0735335,9.70975145 C82.0286182,9.47180852 81.9990171,9.25600634 81.9841699,9.06253174 C81.9692292,8.86933741 81.9618523,8.66848256 81.9618523,8.46006063 C81.9618523,8.26705313 81.9692292,8.08086536 81.9841699,7.90243152 C81.9990171,7.72390426 82.0286182,7.52314284 82.0735335,7.29986699 L83.9022672,7.29986699 L83.9022672,6.74205104 C83.9022672,6.02822226 84.0097464,5.39230648 84.2255451,4.83449053 C84.4409704,4.27667459 84.749868,3.80807556 85.1513976,3.42888029 C85.5525536,3.04949819 86.0319612,2.75942642 86.5897138,2.55857158 C87.1473729,2.35781015 87.7605926,2.25728931 88.4295595,2.25728931 C88.8755374,2.25728931 89.2508275,2.27625374 89.5558966,2.31315498 C89.8604054,2.3504299 90.1915272,2.42142976 90.5482348,2.52503349 C90.5181668,3.01605352 90.4702634,3.45877497 90.4033107,3.85282415 C90.3365447,4.24706017 90.2283185,4.63755936 90.0799393,5.02394803 C89.9160592,4.99442704 89.7454559,4.96088895 89.5671021,4.92361403 C89.3884681,4.88680621 89.1507252,4.8679352 88.8533132,4.8679352 C88.3324454,4.8679352 87.9089718,4.99059679 87.5819586,5.23601338 C87.2548521,5.48142998 87.0765917,6.00580125 87.0468038,6.8090338 L87.0468038,7.29986699 L89.7232317,7.29986699 C89.7676801,7.53799675 89.7973746,7.75370552 89.812502,7.94689985 C89.8270691,8.14046787 89.834446,8.3412293 89.834446,8.54946439 C89.834446,8.74293899 89.8270691,8.92865965 89.812502,9.10728033 C89.7973746,9.28562075 89.7676801,9.48638218 89.7232317,9.70975145 L87.0468038,9.70975145 L87.0468038,18.8332325 C86.5118357,18.9226362 85.9909678,18.967198 85.485881,18.967198 C84.9649198,18.967198 84.4376088,18.9226362 83.9022672,18.8332325 L83.9022672,9.70975145" id="Fill-10" filter="url(#filter-9)" sketch:type="MSShapeGroup"></path>
            <path d="M91.4442787,9.79832487 L90.0613132,9.79036738 C90.0613132,9.79036738 89.9782594,9.54599832 89.9676234,8.70352188 C89.9568948,7.82671719 90.0503072,7.41144709 90.0503072,7.41144709 L91.4184747,7.41144709 L91.4442787,4.07448166 C91.4442787,4.07448166 92.1679009,3.98121244 92.9782763,3.98121244 C93.7888367,3.98121244 94.5365056,4.07448166 94.5365056,4.07448166 L94.5365056,7.41144709 L97.2093017,7.41144709 C97.2533257,7.63259138 97.2827368,7.83143617 97.2978122,8.00825907 C97.3121478,8.18498943 97.3194543,8.36939971 97.3194543,8.5605646 C97.3194543,8.76699677 97.3121478,8.9659341 97.2978122,9.15728404 C97.2827368,9.34891158 97.2533257,9.56265354 97.2093017,9.79832487 L94.5365056,9.79832487 L94.5365056,14.2822796 C94.5365056,14.7391878 94.5728532,15.1076382 94.6466582,15.3871683 C94.7204632,15.6674386 94.8270088,15.8883053 94.9672199,16.0503235 C95.1067835,16.2125269 95.2798276,16.323099 95.4861672,16.3817624 C95.6922293,16.4406108 95.9353789,16.4701276 96.2152461,16.4701276 C96.4361987,16.4701276 96.6532669,16.4518068 96.8670055,16.4147952 C97.0800967,16.3783388 97.2680312,16.3449358 97.4299768,16.3156042 C97.5329154,16.5953193 97.6069979,16.8866931 97.6511144,17.1881525 C97.6951385,17.4903522 97.717243,17.7596115 97.717243,17.9950053 C97.717243,18.1572086 97.713636,18.2933187 97.7066069,18.4038909 C97.6989305,18.5141854 97.687462,18.6214265 97.6731265,18.7241337 C96.9955631,18.886152 96.2959877,18.9673924 95.5746777,18.9673924 C94.2345339,18.9673924 93.2110673,18.6542743 92.5044629,18.0283157 C91.797211,17.4021721 91.4442787,16.3817624 91.4442787,14.9671792 L91.4442787,9.79832487" id="Fill-11" filter="url(#filter-10)" sketch:type="MSShapeGroup"></path>
            <path d="M27.2845942,9.81821861 L25.9019061,9.81026111 C25.9019061,9.81026111 25.8186674,9.56616964 25.8082163,8.7236932 C25.7970253,7.84688851 25.8908076,7.43143336 25.8908076,7.43143336 L27.2588826,7.43143336 L27.2845942,4.09456045 C27.2845942,4.09456045 28.0083088,4.00138376 28.8186842,4.00138376 C29.6293371,4.00138376 30.3769135,4.09456045 30.3769135,4.09456045 L30.3769135,7.43143336 L33.0497096,7.43143336 C33.0939186,7.65257764 33.1231447,7.85151496 33.1381277,8.02806027 C33.1525557,8.2049757 33.1600472,8.38957103 33.1600472,8.58073592 C33.1600472,8.78726062 33.1525557,8.98592036 33.1381277,9.17717778 C33.1231447,9.36917543 33.0939186,9.58273233 33.0497096,9.81821861 L30.3769135,9.81821861 L30.3769135,14.3025435 C30.3769135,14.7595442 30.4136311,15.1279021 30.4873436,15.4074321 C30.5609636,15.6873323 30.6673243,15.9083841 30.8077203,16.0703098 C30.9473764,16.2328832 31.1202355,16.3432703 31.3267601,16.4018412 C31.5328222,16.4608747 31.7757869,16.4903914 32.055654,16.4903914 C32.2766067,16.4903914 32.4937673,16.4718856 32.7071359,16.4351516 C32.9205971,16.3984176 33.1084392,16.3653848 33.2704773,16.3357755 C33.3734158,16.6155831 33.4473134,16.9064943 33.4914299,17.2084164 C33.5357314,17.5108011 33.5576509,17.7796903 33.5576509,18.0151766 C33.5576509,18.1774725 33.5540439,18.3133975 33.5469224,18.4239697 C33.5390609,18.5345418 33.52787,18.6414128 33.5134419,18.7445826 C32.8360635,18.9062308 32.1363031,18.9875637 31.4150856,18.9875637 C30.0749419,18.9875637 29.0513828,18.6747232 28.3447783,18.048302 C27.6378039,17.4222509 27.2845942,16.4018412 27.2845942,14.9873505 L27.2845942,9.81821861" id="Fill-12" filter="url(#filter-11)" sketch:type="MSShapeGroup"></path>
            <path d="M104.781206,3.36263916 L109.761574,3.36263916 C111.123733,3.36263916 112.255302,3.57547329 113.156313,4.00114795 C114.057324,4.4268226 114.777413,4.99438029 115.316601,5.70383805 C115.855789,6.41329581 116.235343,7.22206552 116.455275,8.13017144 C116.675207,9.03827737 116.785171,9.97474756 116.785171,10.9396101 C116.785171,12.0179859 116.646829,13.0218536 116.37014,13.9512432 C116.093452,14.8806329 115.664236,15.6858554 115.082481,16.3669348 C114.500726,17.0480143 113.766448,17.5836468 112.879626,17.9738486 C111.992804,18.3640504 110.939275,18.5591483 109.719007,18.5591483 L104.781206,18.5591483 L104.781206,3.36263916 Z M109.804142,17.7503705 C110.513599,17.7503705 111.226594,17.6404062 111.943146,17.4204743 C112.659699,17.2005424 113.308843,16.8316299 113.890598,16.3137257 C114.472353,15.7958216 114.944136,15.1005634 115.305959,14.2279304 C115.667783,13.3552973 115.848692,12.2592015 115.848692,10.9396101 C115.848692,9.90380179 115.745822,9.01699289 115.540079,8.27915683 C115.334336,7.54132076 115.064746,6.92055454 114.731301,6.41683953 C114.397856,5.91312452 114.014755,5.51583414 113.581985,5.22495646 C113.149216,4.93407878 112.702264,4.71060294 112.241117,4.55452223 C111.779969,4.39844152 111.318829,4.29557169 110.857681,4.24590965 C110.396534,4.19624761 109.981507,4.17141696 109.612589,4.17141696 L105.717685,4.17141696 L105.717685,17.7503705 L109.804142,17.7503705 Z M119.147654,13.1956745 L119.147654,13.3233763 C119.147654,13.9618882 119.232787,14.5720128 119.403057,15.1537681 C119.573327,15.7355235 119.825181,16.2463254 120.158626,16.6861892 C120.492071,17.126053 120.910645,17.4736821 121.41436,17.7290869 C121.918075,17.9844917 122.503369,18.1121922 123.170259,18.1121922 C124.262824,18.1121922 125.128349,17.8248661 125.766861,17.2502053 C126.405373,16.6755445 126.845231,15.8774165 127.086446,14.8557973 L127.895224,14.8557973 C127.654008,16.1328213 127.132565,17.1118583 126.330878,17.7929378 C125.52919,18.4740172 124.468567,18.8145518 123.148975,18.8145518 C122.340194,18.8145518 121.634294,18.6691152 121.031255,18.3782375 C120.428215,18.0873598 119.924508,17.6900694 119.520117,17.1863544 C119.115726,16.6826394 118.814211,16.0867038 118.615563,15.3985298 C118.416915,14.7103558 118.317592,13.9689836 118.317592,13.1743909 C118.317592,12.4081765 118.420462,11.6738987 118.626205,10.9715356 C118.831948,10.2691724 119.140557,9.65195338 119.552043,9.11986007 C119.963528,8.58776675 120.477877,8.16209848 121.095105,7.84284249 C121.712334,7.5235865 122.439517,7.3639609 123.276677,7.3639609 C124.042892,7.3639609 124.720414,7.50585032 125.309263,7.78963342 C125.898113,8.07341653 126.391179,8.4600652 126.788475,8.94959106 C127.185772,9.43911691 127.487287,10.0066746 127.69303,10.6522812 C127.898772,11.2978877 128.001642,11.9895987 128.001642,12.7274347 C128.001642,12.7983805 127.998095,12.8799669 127.991,12.9721964 C127.983906,13.0644259 127.980359,13.1389179 127.980359,13.1956745 L119.147654,13.1956745 Z M127.171581,12.4933148 C127.143202,11.8973703 127.04388,11.3333599 126.87361,10.8012665 C126.70334,10.2691732 126.451486,9.80093813 126.118041,9.39654721 C125.784596,8.99215629 125.380211,8.66935785 124.904875,8.42814221 C124.429538,8.18692658 123.886811,8.06632057 123.276677,8.06632057 C122.623976,8.06632057 122.049324,8.19047381 121.552703,8.43878403 C121.056083,8.68709424 120.637509,9.01343991 120.296969,9.41783083 C119.95643,9.82222176 119.693934,10.2940041 119.509475,10.833192 C119.325016,11.3723799 119.211505,11.9257486 119.168937,12.4933148 L127.171581,12.4933148 Z M134.046192,18.5591483 L133.045862,18.5591483 L128.640151,7.61936441 L129.576631,7.61936441 L133.535385,17.6226688 L133.577952,17.6226688 L137.281303,7.61936441 L138.175216,7.61936441 L134.046192,18.5591483 Z M139.643786,13.1956745 L139.643786,13.3233763 C139.643786,13.9618882 139.728919,14.5720128 139.899189,15.1537681 C140.069459,15.7355235 140.321313,16.2463254 140.654758,16.6861892 C140.988203,17.126053 141.406777,17.4736821 141.910492,17.7290869 C142.414207,17.9844917 142.999501,18.1121922 143.666391,18.1121922 C144.758956,18.1121922 145.624482,17.8248661 146.262994,17.2502053 C146.901506,16.6755445 147.341363,15.8774165 147.582578,14.8557973 L148.391356,14.8557973 C148.150141,16.1328213 147.628697,17.1118583 146.82701,17.7929378 C146.025322,18.4740172 144.964699,18.8145518 143.645107,18.8145518 C142.836326,18.8145518 142.130426,18.6691152 141.527387,18.3782375 C140.924348,18.0873598 140.42064,17.6900694 140.016249,17.1863544 C139.611858,16.6826394 139.310343,16.0867038 139.111695,15.3985298 C138.913047,14.7103558 138.813724,13.9689836 138.813724,13.1743909 C138.813724,12.4081765 138.916594,11.6738987 139.122337,10.9715356 C139.32808,10.2691724 139.636689,9.65195338 140.048175,9.11986007 C140.45966,8.58776675 140.974009,8.16209848 141.591238,7.84284249 C142.208466,7.5235865 142.935649,7.3639609 143.772809,7.3639609 C144.539024,7.3639609 145.216546,7.50585032 145.805396,7.78963342 C146.394246,8.07341653 146.887311,8.4600652 147.284608,8.94959106 C147.681904,9.43911691 147.983419,10.0066746 148.189162,10.6522812 C148.394904,11.2978877 148.497774,11.9895987 148.497774,12.7274347 C148.497774,12.7983805 148.494227,12.8799669 148.487132,12.9721964 C148.480038,13.0644259 148.476491,13.1389179 148.476491,13.1956745 L139.643786,13.1956745 Z M147.667713,12.4933148 C147.639335,11.8973703 147.540012,11.3333599 147.369742,10.8012665 C147.199472,10.2691732 146.947619,9.80093813 146.614173,9.39654721 C146.280728,8.99215629 145.876343,8.66935785 145.401007,8.42814221 C144.92567,8.18692658 144.382943,8.06632057 143.772809,8.06632057 C143.120108,8.06632057 142.545456,8.19047381 142.048836,8.43878403 C141.552215,8.68709424 141.133641,9.01343991 140.793102,9.41783083 C140.452562,9.82222176 140.190066,10.2940041 140.005607,10.833192 C139.821148,11.3723799 139.707637,11.9257486 139.665069,12.4933148 L147.667713,12.4933148 Z M151.371064,3.36263916 L151.371064,18.5591483 L150.562286,18.5591483 L150.562286,3.36263916 L151.371064,3.36263916 Z M153.435576,13.0892564 C153.435576,12.3088528 153.54554,11.5745751 153.765472,10.886401 C153.985404,10.198227 154.308202,9.59164974 154.733877,9.066651 C155.159551,8.54165226 155.684542,8.1266257 156.308865,7.82155886 C156.933188,7.51649203 157.64973,7.3639609 158.458511,7.3639609 C159.267293,7.3639609 159.983835,7.51649203 160.608158,7.82155886 C161.23248,8.1266257 161.757471,8.54165226 162.183146,9.066651 C162.608821,9.59164974 162.931619,10.198227 163.151551,10.886401 C163.371483,11.5745751 163.481447,12.3088528 163.481447,13.0892564 C163.481447,13.8696599 163.371483,14.6074849 163.151551,15.3027535 C162.931619,15.9980221 162.608821,16.6045994 162.183146,17.1225035 C161.757471,17.6404077 161.23248,18.051887 160.608158,18.3569539 C159.983835,18.6620207 159.267293,18.8145518 158.458511,18.8145518 C157.64973,18.8145518 156.933188,18.6620207 156.308865,18.3569539 C155.684542,18.051887 155.159551,17.6404077 154.733877,17.1225035 C154.308202,16.6045994 153.985404,15.9980221 153.765472,15.3027535 C153.54554,14.6074849 153.435576,13.8696599 153.435576,13.0892564 Z M154.244353,13.0892564 C154.244353,13.7419575 154.336582,14.3698182 154.521041,14.9728573 C154.7055,15.5758964 154.975089,16.111529 155.329818,16.5797711 C155.684547,17.0480132 156.124404,17.4204729 156.649403,17.6971615 C157.174402,17.97385 157.777432,18.1121922 158.458511,18.1121922 C159.139591,18.1121922 159.742621,17.97385 160.26762,17.6971615 C160.792618,17.4204729 161.232476,17.0480132 161.587204,16.5797711 C161.941933,16.111529 162.211523,15.5758964 162.395982,14.9728573 C162.580441,14.3698182 162.672669,13.7419575 162.672669,13.0892564 C162.672669,12.4365552 162.580441,11.8086945 162.395982,11.2056554 C162.211523,10.6026163 161.941933,10.0669838 161.587204,9.59874166 C161.232476,9.13049954 160.792618,8.7580398 160.26762,8.48135128 C159.742621,8.20466275 159.139591,8.06632057 158.458511,8.06632057 C157.777432,8.06632057 157.174402,8.20466275 156.649403,8.48135128 C156.124404,8.7580398 155.684547,9.13049954 155.329818,9.59874166 C154.975089,10.0669838 154.7055,10.6026163 154.521041,11.2056554 C154.336582,11.8086945 154.244353,12.4365552 154.244353,13.0892564 Z M166.37602,10.1308323 L166.418588,10.1308323 C166.503723,9.86123837 166.645612,9.56327058 166.84426,9.23692001 C167.042908,8.91056944 167.305404,8.60905442 167.631754,8.33236589 C167.958105,8.05567737 168.351848,7.82510706 168.812996,7.64064804 C169.274143,7.45618902 169.802681,7.3639609 170.398626,7.3639609 C171.235786,7.3639609 171.962969,7.52003926 172.580197,7.83220068 C173.197426,8.14436209 173.708228,8.56293589 174.112619,9.08793463 C174.517009,9.61293337 174.818524,10.2230579 175.017173,10.9183265 C175.215821,11.6135951 175.315143,12.3443256 175.315143,13.11054 C175.315143,13.9477001 175.215821,14.713903 175.017173,15.4091716 C174.818524,16.1044402 174.517009,16.703923 174.112619,17.207638 C173.708228,17.7113531 173.197426,18.1050962 172.580197,18.3888793 C171.962969,18.6726624 171.235786,18.8145518 170.398626,18.8145518 C169.49052,18.8145518 168.68175,18.6159066 167.972292,18.2186103 C167.262835,17.821314 166.744938,17.1757171 166.418588,16.2818003 L166.37602,16.2818003 L166.37602,22.4753356 L165.567243,22.4753356 L165.567243,7.61936441 L166.37602,7.61936441 L166.37602,10.1308323 Z M170.398626,18.1121922 C171.108083,18.1121922 171.721755,17.9773972 172.239659,17.7078033 C172.757564,17.4382093 173.183232,17.0763913 173.516677,16.6223383 C173.850122,16.1682854 174.098429,15.6397473 174.261604,15.0367082 C174.424779,14.4336691 174.506366,13.7916194 174.506366,13.11054 C174.506366,12.4862172 174.428326,11.8725454 174.272246,11.2695063 C174.116165,10.6664672 173.874953,10.1272874 173.548602,9.65195072 C173.222252,9.17661403 172.800131,8.79351258 172.282227,8.5026349 C171.764322,8.21175722 171.136462,8.06632057 170.398626,8.06632057 C169.674979,8.06632057 169.05776,8.20820999 168.54695,8.49199309 C168.036141,8.77577619 167.621114,9.15178316 167.301858,9.62002528 C166.982602,10.0882674 166.752032,10.6239 166.61014,11.2269391 C166.468249,11.8299782 166.397304,12.4578389 166.397304,13.11054 C166.397304,13.7632411 166.461154,14.3911018 166.588857,14.9941409 C166.716559,15.59718 166.93294,16.1292653 167.238007,16.5904129 C167.543074,17.0515604 167.954553,17.4204729 168.472458,17.6971615 C168.990362,17.97385 169.632411,18.1121922 170.398626,18.1121922 Z M177.528641,13.1956745 L177.528641,13.3233763 C177.528641,13.9618882 177.613774,14.5720128 177.784044,15.1537681 C177.954314,15.7355235 178.206168,16.2463254 178.539613,16.6861892 C178.873058,17.126053 179.291632,17.4736821 179.795347,17.7290869 C180.299062,17.9844917 180.884356,18.1121922 181.551246,18.1121922 C182.643811,18.1121922 183.509336,17.8248661 184.147848,17.2502053 C184.78636,16.6755445 185.226217,15.8774165 185.467433,14.8557973 L186.276211,14.8557973 C186.034995,16.1328213 185.513552,17.1118583 184.711864,17.7929378 C183.910177,18.4740172 182.849554,18.8145518 181.529962,18.8145518 C180.72118,18.8145518 180.015281,18.6691152 179.412241,18.3782375 C178.809202,18.0873598 178.305495,17.6900694 177.901104,17.1863544 C177.496713,16.6826394 177.195198,16.0867038 176.99655,15.3985298 C176.797902,14.7103558 176.698579,13.9689836 176.698579,13.1743909 C176.698579,12.4081765 176.801449,11.6738987 177.007192,10.9715356 C177.212934,10.2691724 177.521544,9.65195338 177.933029,9.11986007 C178.344515,8.58776675 178.858864,8.16209848 179.476092,7.84284249 C180.093321,7.5235865 180.820504,7.3639609 181.657664,7.3639609 C182.423878,7.3639609 183.1014,7.50585032 183.69025,7.78963342 C184.2791,8.07341653 184.772166,8.4600652 185.169462,8.94959106 C185.566759,9.43911691 185.868274,10.0066746 186.074016,10.6522812 C186.279759,11.2978877 186.382629,11.9895987 186.382629,12.7274347 C186.382629,12.7983805 186.379082,12.8799669 186.371987,12.9721964 C186.364893,13.0644259 186.361345,13.1389179 186.361345,13.1956745 L177.528641,13.1956745 Z M185.552568,12.4933148 C185.524189,11.8973703 185.424867,11.3333599 185.254597,10.8012665 C185.084327,10.2691732 184.832473,9.80093813 184.499028,9.39654721 C184.165583,8.99215629 183.761198,8.66935785 183.285861,8.42814221 C182.810525,8.18692658 182.267798,8.06632057 181.657664,8.06632057 C181.004963,8.06632057 180.430311,8.19047381 179.93369,8.43878403 C179.43707,8.68709424 179.018496,9.01343991 178.677956,9.41783083 C178.337417,9.82222176 178.074921,10.2940041 177.890462,10.833192 C177.706003,11.3723799 177.592492,11.9257486 177.549924,12.4933148 L185.552568,12.4933148 Z M189.064366,10.0456978 L189.128217,10.0456978 C189.227541,9.69096893 189.40845,9.35752879 189.670949,9.04536737 C189.933449,8.73320596 190.2527,8.46361606 190.628712,8.23658958 C191.004725,8.00956309 191.423299,7.83574855 191.884446,7.71514073 C192.345594,7.59453291 192.824471,7.54132438 193.321091,7.55551354 L193.321091,8.36429133 C192.895417,8.30753471 192.409445,8.35010154 191.863163,8.49199309 C191.31688,8.63388464 190.795437,8.94604137 190.298816,9.42847265 C190.100168,9.64130997 189.926354,9.84704964 189.777367,10.0456978 C189.628381,10.244346 189.504228,10.4642746 189.404904,10.7054902 C189.30558,10.9467059 189.227541,11.2162958 189.170784,11.514268 C189.114027,11.8122403 189.078555,12.1669638 189.064366,12.5784493 L189.064366,18.5591483 L188.255588,18.5591483 L188.255588,7.61936441 L189.064366,7.61936441 L189.064366,10.0456978 Z M194.555542,14.9196482 C194.58392,15.4304578 194.697431,15.8809567 194.89608,16.2711585 C195.094728,16.6613603 195.353676,16.9948004 195.672932,17.2714889 C195.992188,17.5481775 196.364648,17.7574644 196.790322,17.8993559 C197.215997,18.0412475 197.677138,18.1121922 198.173758,18.1121922 C198.528487,18.1121922 198.908041,18.080267 199.312432,18.0164158 C199.716823,17.9525646 200.09283,17.8355059 200.440464,17.665236 C200.788099,17.4949662 201.075425,17.2573014 201.302451,16.9522345 C201.529478,16.6471677 201.642989,16.260519 201.642989,15.7922769 C201.642989,15.1821432 201.458533,14.7210026 201.089615,14.4088412 C200.720697,14.0966798 200.256009,13.8554678 199.695537,13.6851979 C199.135066,13.514928 198.532036,13.3765859 197.886429,13.2701672 C197.240822,13.1637485 196.637792,13.0041229 196.077321,12.7912856 C195.516849,12.5784483 195.052161,12.2769332 194.683243,11.8867315 C194.314325,11.4965297 194.129869,10.9254248 194.129869,10.1733996 C194.129869,9.63421167 194.250475,9.18371275 194.491691,8.8218893 C194.732906,8.46006584 195.041516,8.17273976 195.417528,7.95990243 C195.793541,7.74706511 196.215662,7.59453398 196.683904,7.50230447 C197.152146,7.41007496 197.620381,7.3639609 198.088624,7.3639609 C198.65619,7.3639609 199.188275,7.42781114 199.684895,7.55551354 C200.181516,7.68321593 200.610731,7.88895559 200.972555,8.1727387 C201.334378,8.4565218 201.618157,8.81833983 201.8239,9.25820364 C202.029643,9.69806745 202.132512,10.2301528 202.132512,10.8544756 L201.323735,10.8544756 C201.323735,10.3578552 201.242148,9.93218691 201.078973,9.57745803 C200.915798,9.22272915 200.688775,8.93540307 200.397897,8.71547117 C200.107019,8.49553926 199.762937,8.33236643 199.365641,8.22594776 C198.968345,8.1195291 198.542676,8.06632057 198.088624,8.06632057 C197.719705,8.06632057 197.347246,8.10179292 196.971233,8.1727387 C196.595221,8.24368447 196.258233,8.36429048 195.960261,8.53456034 C195.662289,8.70483021 195.417529,8.92475881 195.225976,9.19435276 C195.034422,9.46394671 194.938647,9.79029238 194.938647,10.1733996 C194.938647,10.6132634 195.045064,10.9679869 195.257901,11.2375809 C195.470739,11.5071748 195.75097,11.7235562 196.098604,11.8867315 C196.446239,12.0499068 196.836435,12.1811545 197.269204,12.2804786 C197.701973,12.3798027 198.138283,12.4791252 198.578147,12.5784493 C199.117335,12.6777734 199.624589,12.7948322 200.099926,12.9296292 C200.575263,13.0644261 200.986742,13.2488824 201.334377,13.4830035 C201.682011,13.7171245 201.955148,14.0186395 202.153796,14.3875576 C202.352444,14.7564756 202.451767,15.2247107 202.451767,15.7922769 C202.451767,16.3882214 202.316972,16.8777399 202.047378,17.2608471 C201.777784,17.6439543 201.437249,17.9525638 201.025764,18.1866849 C200.614278,18.4208059 200.156685,18.5839788 199.65297,18.6762083 C199.149255,18.7684378 198.656189,18.8145518 198.173758,18.8145518 C197.549435,18.8145518 196.971236,18.7329654 196.439142,18.5697901 C195.907049,18.4066148 195.442361,18.1583084 195.045065,17.8248632 C194.647769,17.4914181 194.335612,17.083486 194.108585,16.6010547 C193.881559,16.1186234 193.760953,15.5581602 193.746764,14.9196482 L194.555542,14.9196482 Z" id="Developers" filter="url(#filter-12)" sketch:type="MSShapeGroup"></path>
        </g>
        <path d="M20,65 L25,65 L25,66 L20,66 L20,65 Z M15,65 L16,65 L16,66 L15,66 L15,65 Z M25,53.5713061 C25,53.2554377 24.7518595,53 24.4445486,53 L15.555243,53 C15.2483489,53 15,53.2554377 15,53.5713061 L15,60.4286939 C15,60.7447766 15.2483489,61 15.555243,61 L24.4445486,61 C24.7518595,61 25,60.7445623 25,60.4284796 L25,53.5713061 Z M14.2424104,71 C14.1085449,71 14,70.8737155 14,70.7179721 L14,68.2817995 C14,68.1260562 14.1085449,68 14.2424104,68 C14.3762758,68 14.9230769,67.844485 14.9230769,68 L14.9230769,70 L25.0769231,69.9999999 L25.0769231,68 C25.0769231,67.8440283 25.6239204,68 25.7575896,68 C25.8912588,68 26,68.1265129 26,68.2822562 L26,70.7179721 C26,70.8737155 25.8916514,71 25.7577859,71 L14.2424104,71 Z" id="Fill-1" fill="#999999" sketch:type="MSShapeGroup"></path>
        <path d="M13.6027884,68 L26.6879196,68 C26.8599891,68 27,67.8532354 27,67.6731464 L27,50.3268536 C27,50.1465363 26.8599891,50 26.6879196,50 L13.3122985,50 C13.140229,50 13,50.1465363 13,50.3268536 L13,67.6731464 C13,67.8532354 13.140229,68 13.3122985,68 L13.6027884,68 Z M25.7325025,67 C25.8799907,67 26,66.8695426 26,66.7094635 L26,51.2905365 C26,51.1302545 25.8799907,51 25.7325025,51 L14.2676844,51 C14.1201963,51 14,51.1302545 14,51.2905365 L14,66.7094635 C14,66.8695426 14.1201963,67 14.2676844,67 L14.5166758,67 L25.7325025,67 Z" id="Fill-5" fill-opacity="0.4" fill="#000000" sketch:type="MSShapeGroup"></path>
        <path d="M59.3830533,62.8857191 L57.6251264,61.1277122 L57.6251264,61.1277122 L59.3747188,59.37804 C59.6165846,59.1361633 59.6165846,58.743915 59.3747188,58.5020383 C59.1328531,58.2595787 58.7400399,58.2595787 58.4981742,58.5014554 L56.7484653,60.2510112 L55.765383,59.2678841 L52.409569,62.6232681 C51.863477,63.1699677 51.863477,64.0646202 52.409569,64.6107371 L55.9005946,68.1013389 C56.4472694,68.6480386 57.3418812,68.6480386 57.8879732,68.1013389 L61.2432044,64.7459549 L60.2595979,63.7623037 L62.0090153,62.0130393 C62.250881,61.7705797 62.250881,61.3783314 62.0090153,61.1364547 C61.7671496,60.894578 61.3749192,60.894578 61.1324707,61.1364547 L59.3830533,62.8857191 L59.3830533,62.8857191 Z M67.5899939,58.4000421 C68.1366687,57.8533424 68.1366687,56.9586899 67.5899939,56.4119902 L64.0995511,52.9213884 C63.5528763,52.3746887 62.6582645,52.3746887 62.1115897,52.9213884 L58.7569413,56.2767723 L64.2347627,61.7548432 L67.5899939,58.4000421 Z" id="Shape" fill="#000000" sketch:type="MSShapeGroup"></path>
        <path d="M101,58.999 L101,64.999 L100,64.999 L100,58.999 L98,58.999 L100.5,56 L103,58.999 L101,58.999 Z" id="Shape" fill="#000000" sketch:type="MSShapeGroup"></path>
        <path d="M141,58.999 L141,64.999 L140,64.999 L140,58.999 L138,58.999 L140.5,56 L143,58.999 L141,58.999 Z" id="Path" fill="#000000" sketch:type="MSShapeGroup" transform="translate(140.500000, 60.500000) rotate(-180.000000) translate(-140.500000, -60.500000) "></path>
        <path d="M180,62 L184,58 L176,58 L180,62 Z" id="Shape" fill="#000000" sketch:type="MSShapeGroup"></path>
        <path d="M220,62 L224,58 L216,58 L220,62 Z" id="Path" fill="#000000" sketch:type="MSShapeGroup" transform="translate(220.000000, 60.000000) rotate(-180.000000) translate(-220.000000, -60.000000) "></path>
    </g>
</svg>